HIERARCHY
ROOT Hips
{
  OFFSET 340.57 87.5751 214.797
  CHANNELS 6 Xposition Yposition Zposition Zrotation Xrotation Yrotation
  JOINT RightUpLeg
  {
    OFFSET -9.35418 -1.54571 -0.019184
    CHANNELS 6 Xposition Yposition Zposition Zrotation Xrotation Yrotation
    JOINT RightLeg
    {
      OFFSET -0.0595554 -41.8927 0.0789417
      CHANNELS 6 Xposition Yposition Zposition Zrotation Xrotation Yrotation
      JOINT RightFoot
      {
        OFFSET -1.00159 -42.3965 -1.97064
        CHANNELS 6 Xposition Yposition Zposition Zrotation Xrotation Yrotation
        End Site
        {
          OFFSET 0 -7.69 17.5
        }
      }
    }
  }
  JOINT LeftUpLeg
  {
    OFFSET 9.33628 -1.64051 -0.0795185
    CHANNELS 6 Xposition Yposition Zposition Zrotation Xrotation Yrotation
    JOINT LeftLeg
    {
      OFFSET 0.124871 -41.8725 -0.08325
      CHANNELS 6 Xposition Yposition Zposition Zrotation Xrotation Yrotation
      JOINT LeftFoot
      {
        OFFSET 0.728222 -40.8097 2.1196
        CHANNELS 6 Xposition Yposition Zposition Zrotation Xrotation Yrotation
        End Site
        {
          OFFSET 0 -7.69 17.5
        }
      }
    }
  }
  JOINT Spine
  {
    OFFSET -0.00473719 14.2997 0.0629236
    CHANNELS 6 Xposition Yposition Zposition Zrotation Xrotation Yrotation
    JOINT Spine1
    {
      OFFSET 0.0169761 9.72347 0.0140793
      CHANNELS 6 Xposition Yposition Zposition Zrotation Xrotation Yrotation
      JOINT Spine2
      {
        OFFSET 0.0492782 10.1166 -0.00504451
        CHANNELS 6 Xposition Yposition Zposition Zrotation Xrotation Yrotation
        JOINT Spine3
        {
          OFFSET 0.0356489 9.71757 0.00502689
          CHANNELS 6 Xposition Yposition Zposition Zrotation Xrotation Yrotation
          JOINT Neck
          {
            OFFSET 0.139197 10.3854 0.0533347
            CHANNELS 6 Xposition Yposition Zposition Zrotation Xrotation Yrotation
            JOINT Head
            {
              OFFSET 0.148012 9.46768 -0.000545472
              CHANNELS 6 Xposition Yposition Zposition Zrotation Xrotation Yrotation
              End Site
              {
                OFFSET 0 15.95 0
              }
            }
          }
          JOINT RightShoulder
          {
            OFFSET -3.16785 6.93254 0.0309733
            CHANNELS 6 Xposition Yposition Zposition Zrotation Xrotation Yrotation
            JOINT RightArm
            {
              OFFSET -12.7681 0.0492996 0.0890957
              CHANNELS 6 Xposition Yposition Zposition Zrotation Xrotation Yrotation
              JOINT RightForeArm
              {
                OFFSET -26.4761 -0.090776 0.147076
                CHANNELS 6 Xposition Yposition Zposition Zrotation Xrotation Yrotation
                JOINT RightHand
                {
                  OFFSET -25.9655 0.0607057 -0.248467
                  CHANNELS 6 Xposition Yposition Zposition Zrotation Xrotation Yrotation
                  JOINT RightHandThumb1
                  {
                    OFFSET -2.48905 0.190105 3.12053
                    CHANNELS 6 Xposition Yposition Zposition Zrotation Xrotation Yrotation
                    JOINT RightHandThumb2
                    {
                      OFFSET -3.68274 0 0
                      CHANNELS 6 Xposition Yposition Zposition Zrotation Xrotation Yrotation
                      JOINT RightHandThumb3
                      {
                        OFFSET -2.55832 0 0
                        CHANNELS 6 Xposition Yposition Zposition Zrotation Xrotation Yrotation
                        End Site
                        {
                          OFFSET -2.194 0 0
                        }
                      }
                    }
                  }
                  JOINT RightInHandIndex
                  {
                    OFFSET -3.22368 0.508421 1.97842
                    CHANNELS 6 Xposition Yposition Zposition Zrotation Xrotation Yrotation
                    JOINT RightHandIndex1
                    {
                      OFFSET -5.21684 -0.091368 0.999158
                      CHANNELS 6 Xposition Yposition Zposition Zrotation Xrotation Yrotation
                      JOINT RightHandIndex2
                      {
                        OFFSET -3.61937 0 0
                        CHANNELS 6 Xposition Yposition Zposition Zrotation Xrotation Yrotation
                        JOINT RightHandIndex3
                        {
                          OFFSET -2.0521 0 0
                          CHANNELS 6 Xposition Yposition Zposition Zrotation Xrotation Yrotation
                          End Site
                          {
                            OFFSET -1.805 0 0
                          }
                        }
                      }
                    }
                  }
                  JOINT RightInHandMiddle
                  {
                    OFFSET -3.38211 0.517263 0.756737
                    CHANNELS 6 Xposition Yposition Zposition Zrotation Xrotation Yrotation
                    JOINT RightHandMiddle1
                    {
                      OFFSET -5.17411 -0.084 0.313895
                      CHANNELS 6 Xposition Yposition Zposition Zrotation Xrotation Yrotation
                      JOINT RightHandMiddle2
                      {
                        OFFSET -3.94947 0 0
                        CHANNELS 6 Xposition Yposition Zposition Zrotation Xrotation Yrotation
                        JOINT RightHandMiddle3
                        {
                          OFFSET -2.47579 0 0
                          CHANNELS 6 Xposition Yposition Zposition Zrotation Xrotation Yrotation
                          End Site
                          {
                            OFFSET -1.975 0 0
                          }
                        }
                      }
                    }
                  }
                  JOINT RightInHandRing
                  {
                    OFFSET -3.36516 0.537895 -0.128947
                    CHANNELS 6 Xposition Yposition Zposition Zrotation Xrotation Yrotation
                    JOINT RightHandRing1
                    {
                      OFFSET -4.63474 -0.022105 -0.478947
                      CHANNELS 6 Xposition Yposition Zposition Zrotation Xrotation Yrotation
                      JOINT RightHandRing2
                      {
                        OFFSET -3.44238 0 0
                        CHANNELS 6 Xposition Yposition Zposition Zrotation Xrotation Yrotation
                        JOINT RightHandRing3
                        {
                          OFFSET -2.3881 0 0
                          CHANNELS 6 Xposition Yposition Zposition Zrotation Xrotation Yrotation
                          End Site
                          {
                            OFFSET -1.857 0 0
                          }
                        }
                      }
                    }
                  }
                  JOINT RightInHandPinky
                  {
                    OFFSET -3.16105 0.469368 -1.20179
                    CHANNELS 6 Xposition Yposition Zposition Zrotation Xrotation Yrotation
                    JOINT RightHandPinky1
                    {
                      OFFSET -4.14105 -0.022105 -1.09053
                      CHANNELS 6 Xposition Yposition Zposition Zrotation Xrotation Yrotation
                      JOINT RightHandPinky2
                      {
                        OFFSET -2.75653 0 0
                        CHANNELS 6 Xposition Yposition Zposition Zrotation Xrotation Yrotation
                        JOINT RightHandPinky3
                        {
                          OFFSET -1.74189 0 0
                          CHANNELS 6 Xposition Yposition Zposition Zrotation Xrotation Yrotation
                          End Site
                          {
                            OFFSET -1.645 0 0
                          }
                        }
                      }
                    }
                  }
                }
              }
            }
          }
          JOINT LeftShoulder
          {
            OFFSET 3.20588 6.97332 0.0254387
            CHANNELS 6 Xposition Yposition Zposition Zrotation Xrotation Yrotation
            JOINT LeftArm
            {
              OFFSET 12.869 0.0341024 0.0247643
              CHANNELS 6 Xposition Yposition Zposition Zrotation Xrotation Yrotation
              JOINT LeftForeArm
              {
                OFFSET 26.4961 -0.048754 -0.0727933
                CHANNELS 6 Xposition Yposition Zposition Zrotation Xrotation Yrotation
                JOINT LeftHand
                {
                  OFFSET 26.0058 -0.0100885 -0.0649647
                  CHANNELS 6 Xposition Yposition Zposition Zrotation Xrotation Yrotation
                  JOINT LeftHandThumb1
                  {
                    OFFSET 2.48905 0.190105 3.12053
                    CHANNELS 6 Xposition Yposition Zposition Zrotation Xrotation Yrotation
                    JOINT LeftHandThumb2
                    {
                      OFFSET 3.68274 0 0
                      CHANNELS 6 Xposition Yposition Zposition Zrotation Xrotation Yrotation
                      JOINT LeftHandThumb3
                      {
                        OFFSET 2.55832 0 0
                        CHANNELS 6 Xposition Yposition Zposition Zrotation Xrotation Yrotation
                        End Site
                        {
                          OFFSET 2.194 0 0
                        }
                      }
                    }
                  }
                  JOINT LeftInHandIndex
                  {
                    OFFSET 3.22368 0.508421 1.97842
                    CHANNELS 6 Xposition Yposition Zposition Zrotation Xrotation Yrotation
                    JOINT LeftHandIndex1
                    {
                      OFFSET 5.21684 -0.091368 0.999158
                      CHANNELS 6 Xposition Yposition Zposition Zrotation Xrotation Yrotation
                      JOINT LeftHandIndex2
                      {
                        OFFSET 3.61937 0 0
                        CHANNELS 6 Xposition Yposition Zposition Zrotation Xrotation Yrotation
                        JOINT LeftHandIndex3
                        {
                          OFFSET 2.0521 0 0
                          CHANNELS 6 Xposition Yposition Zposition Zrotation Xrotation Yrotation
                          End Site
                          {
                            OFFSET 1.805 0 0
                          }
                        }
                      }
                    }
                  }
                  JOINT LeftInHandMiddle
                  {
                    OFFSET 3.38211 0.517263 0.756737
                    CHANNELS 6 Xposition Yposition Zposition Zrotation Xrotation Yrotation
                    JOINT LeftHandMiddle1
                    {
                      OFFSET 5.17411 -0.084 0.313895
                      CHANNELS 6 Xposition Yposition Zposition Zrotation Xrotation Yrotation
                      JOINT LeftHandMiddle2
                      {
                        OFFSET 3.94947 0 0
                        CHANNELS 6 Xposition Yposition Zposition Zrotation Xrotation Yrotation
                        JOINT LeftHandMiddle3
                        {
                          OFFSET 2.47579 0 0
                          CHANNELS 6 Xposition Yposition Zposition Zrotation Xrotation Yrotation
                          End Site
                          {
                            OFFSET 1.975 0 0
                          }
                        }
                      }
                    }
                  }
                  JOINT LeftInHandRing
                  {
                    OFFSET 3.36516 0.537895 -0.128947
                    CHANNELS 6 Xposition Yposition Zposition Zrotation Xrotation Yrotation
                    JOINT LeftHandRing1
                    {
                      OFFSET 4.63474 -0.022105 -0.478947
                      CHANNELS 6 Xposition Yposition Zposition Zrotation Xrotation Yrotation
                      JOINT LeftHandRing2
                      {
                        OFFSET 3.44238 0 0
                        CHANNELS 6 Xposition Yposition Zposition Zrotation Xrotation Yrotation
                        JOINT LeftHandRing3
                        {
                          OFFSET 2.3881 0 0
                          CHANNELS 6 Xposition Yposition Zposition Zrotation Xrotation Yrotation
                          End Site
                          {
                            OFFSET 1.857 0 0
                          }
                        }
                      }
                    }
                  }
                  JOINT LeftInHandPinky
                  {
                    OFFSET 3.16105 0.469368 -1.20179
                    CHANNELS 6 Xposition Yposition Zposition Zrotation Xrotation Yrotation
                    JOINT LeftHandPinky1
                    {
                      OFFSET 4.14105 -0.022105 -1.09053
                      CHANNELS 6 Xposition Yposition Zposition Zrotation Xrotation Yrotation
                      JOINT LeftHandPinky2
                      {
                        OFFSET 2.75653 0 0
                        CHANNELS 6 Xposition Yposition Zposition Zrotation Xrotation Yrotation
                        JOINT LeftHandPinky3
                        {
                          OFFSET 1.74189 0 0
                          CHANNELS 6 Xposition Yposition Zposition Zrotation Xrotation Yrotation
                          End Site
                          {
                            OFFSET 1.645 0 0
                          }
                        }
                      }
                    }
                  }
                }
              }
            }
          }
        }
      }
    }
  }
}
MOTION
Frames:	3
Frame Time:	0.00833333
327.638 87.5295 202.59 28.5161 6.93684 -103.439 -9.2892 -1.59102 -0.0647878 20.9277 -49.9903 10.3015 0.219705 -41.8239 0.073663 -5.72949 24.1356 -1.01494 0.53559 -40.7078 0.328248 4.64035 0.829235 36.9373 9.20987 -1.5403 0.0830143 37.3402 -18.0194 12.2254 -0.00303657 -41.8878 0.000291507 -6.28029 31.9646 0.464035 2.97492 -44.0124 0.527193 -0.064713 -15.6855 12.3263 0.0258846 14.3028 -0.083857 -6.85459 1.45271 -6.23852 0.0322255 9.72293 -0.00923442 -1.73154 0.193554 -1.60716 -0.0341684 10.1255 0.0982253 -2.86507 0.259354 -2.67462 -0.00440446 9.71754 -0.00207389 -0.661334 -0.408573 2.19864 -0.13796 10.3936 -0.0301933 -1.75508 -2.25994 12.6092 -0.0595682 9.45242 -0.112063 -11.3567 -1.87895 34.8251 -3.23604 6.90476 -0.0139395 8.97052 0.484082 -1.88472 -12.8288 -0.037528 -0.174091 68.909 -27.3853 17.5648 -26.7956 -0.784325 0.262381 21.7846 -18.5044 104.3 -25.9417 -0.829754 -0.621807 13.3213 -32.1986 15.6488 -2.48905 0.190105 3.12053 28.184 10.7294 19.1592 -3.68274 1.42109e-14 5.68434e-14 5.09102e-15 -3.18055e-15 -10 -2.55832 0 0 -2.2651e-15 3.18055e-15 -10 -3.22368 0.508421 1.97842 -6.36111e-15 0 6.36111e-15 -5.21684 -0.091368 0.999158 19.9818 0.871897 2.3964 -3.61937 -2.84217e-14 0 24 -3.18055e-15 3.97569e-15 -2.0521 0 5.68434e-14 20 9.54166e-15 7.95139e-15 -3.38211 0.517263 0.756737 -6.36111e-15 0 6.36111e-15 -5.17411 -0.084 0.313895 20 6.36111e-15 1.39149e-15 -3.94947 -2.84217e-14 0 24 6.36111e-15 3.18055e-15 -2.47579 -1.42109e-14 0 20 -1.59028e-15 1.43125e-14 -3.36516 0.537895 -0.128947 -6.36111e-15 0 6.36111e-15 -4.63474 -0.022105 -0.478947 19.9748 -1.02565 -2.81938 -3.44238 -1.42109e-14 0 24 3.18055e-15 5.56597e-15 -2.3881 0 0 20 -3.18055e-15 1.59028e-15 -3.16105 0.469368 -1.20179 -6.36111e-15 0 6.36111e-15 -4.14105 -0.022105 -1.09053 19.7815 -3.00948 -8.30515 -2.75653 -1.42109e-14 5.68434e-14 24 1.59028e-15 -2.38542e-15 -1.74189 0 0 20 1.59028e-15 1.59028e-15 3.15365 6.92843 -0.00520579 8.93999 -14.2379 -46.1404 12.7158 0.0227966 -0.0344146 -19.436 39.3805 -105.684 26.5201 -0.0230261 0.0697231 26.7124 -5.1398 -15.7023 25.9396 -0.0408023 -0.0358277 -38.7536 -8.38485 -11.1006 2.48905 0.190105 3.12053 -28.184 10.7294 -19.1592 3.68274 -1.42109e-14 0 -3.79044e-15 3.18055e-15 10 2.55832 0 5.68434e-14 -5.89842e-15 -3.18055e-15 10 3.22368 0.508421 1.97842 -6.36111e-15 6.36111e-15 3.18055e-15 5.21684 -0.091368 0.999158 -19.9818 0.871897 -2.3964 3.61937 0 -5.68434e-14 -24 6.36111e-15 3.18055e-15 2.0521 0 0 -20 6.36111e-15 -3.57812e-15 3.38211 0.517263 0.756737 -6.36111e-15 6.36111e-15 3.18055e-15 5.17411 -0.084 0.313895 -20 -4.77083e-15 -9.54166e-15 3.94947 0 -5.68434e-14 -24 0 -2.38542e-15 2.47579 -1.42109e-14 0 -20 0 2.78299e-15 3.36516 0.537895 -0.128947 -6.36111e-15 6.36111e-15 3.18055e-15 4.63474 -0.022105 -0.478947 -19.9748 -1.02565 2.81938 3.44238 0 5.68434e-14 -24 -3.18055e-15 -1.11319e-14 2.3881 -2.84217e-14 0 -20 0 4.37326e-15 3.16105 0.469368 -1.20179 -6.36111e-15 6.36111e-15 3.18055e-15 4.14105 -0.022105 -1.09053 -19.7815 -3.00948 8.30515 2.75653 0 -5.68434e-14 -24 3.18055e-15 -1.70955e-14 1.74189 -2.84217e-14 0 -20 1.59028e-15 -1.0635e-14 
327.84 87.5949 202.902 28.4218 7.35701 -102.395 -9.25053 -1.57607 -0.0604734 19.7357 -50.2191 11.0663 0.242411 -41.8235 0.0931319 -4.66868 24.2932 -3.22205 0.611711 -40.7684 0.308732 4.83436 0.818728 36.3803 9.20809 -1.54069 0.083695 37.3811 -18.6813 12.3169 -0.00420783 -41.8875 7.30859e-05 -5.98119 31.827 0.227391 3.09146 -44.0423 0.414903 -0.674366 -16.1634 11.4501 0.0311882 14.303 -0.0875936 -6.7378 1.71549 -6.15341 0.0375198 9.72265 -0.0102108 -1.7046 0.270456 -1.59528 -0.0333683 10.1255 0.102822 -2.81927 0.394054 -2.66181 0.0053431 9.71754 -0.00298781 -0.650247 -0.388582 2.16887 -0.145033 10.3937 -0.0230813 -1.66321 -2.02672 11.549 -0.0708039 9.44884 -0.116242 -11.2182 -2.05076 34.9951 -3.23548 6.90516 -0.014571 8.87953 0.309312 -1.40006 -12.8223 -0.0355108 -0.165805 69.5915 -26.1886 17.976 -26.7824 -0.688076 0.25216 21.5537 -18.493 102.915 -25.9882 -0.73513 -0.572199 13.4181 -32.4399 16.1653 -2.48905 0.190105 3.12053 28.184 10.7294 19.1592 -3.68274 0 0 6.14501e-15 -6.36111e-15 -10 -2.55832 1.42109e-14 0 3.14015e-15 6.36111e-15 -10 -3.22368 0.508421 1.97842 -6.36111e-15 0 -2.38542e-15 -5.21684 -0.091368 0.999158 19.9818 0.871897 2.3964 -3.61937 2.84217e-14 5.68434e-14 24 -3.18055e-15 -1.19271e-14 -2.0521 -2.84217e-14 0 20 1.59028e-15 -0 -3.38211 0.517263 0.756737 -6.36111e-15 0 -2.38542e-15 -5.17411 -0.084 0.313895 20 1.59028e-15 1.37161e-14 -3.94947 0 0 24 0 5.56597e-15 -2.47579 0 5.68434e-14 20 3.18055e-15 9.54166e-15 -3.36516 0.537895 -0.128947 -6.36111e-15 0 -2.38542e-15 -4.63474 -0.022105 -0.478947 19.9748 -1.02565 -2.81938 -3.44238 -1.42109e-14 0 24 4.77083e-15 1.27222e-14 -2.3881 0 -5.68434e-14 20 -3.18055e-15 4.77083e-15 -3.16105 0.469368 -1.20179 -6.36111e-15 0 -2.38542e-15 -4.14105 -0.022105 -1.09053 19.7815 -3.00948 -8.30515 -2.75653 0 5.68434e-14 24 -3.18055e-15 1.23246e-14 -1.74189 0 0 20 0 1.59028e-15 3.15445 6.92871 -0.00561014 9.19687 -13.7538 -45.3388 12.7155 0.0221041 -0.0299582 -20.2806 39.4177 -104.508 26.5203 -0.0218467 0.0573635 26.3294 -5.08157 -15.5564 25.9362 -0.0420119 -0.0383729 -38.7643 -8.26659 -10.7015 2.48905 0.190105 3.12053 -28.184 10.7294 -19.1592 3.68274 0 0 -5.60818e-16 3.18055e-15 10 2.55832 0 0 1.54717e-15 9.54166e-15 10 3.22368 0.508421 1.97842 -3.18055e-15 -7.95139e-15 3.18055e-15 5.21684 -0.091368 0.999158 -19.9818 0.871897 -2.3964 3.61937 0 0 -24 6.36111e-15 -1.11319e-14 2.0521 0 5.68434e-14 -20 6.36111e-15 -1.41137e-14 3.38211 0.517263 0.756737 -3.18055e-15 -7.95139e-15 3.18055e-15 5.17411 -0.084 0.313895 -20 1.59028e-15 -7.95139e-15 3.94947 -2.84217e-14 0 -24 3.18055e-15 -5.56597e-15 2.47579 5.68434e-14 0 -20 -3.18055e-15 -7.45443e-15 3.36516 0.537895 -0.128947 -3.18055e-15 -7.95139e-15 3.18055e-15 4.63474 -0.022105 -0.478947 -19.9748 -1.02565 2.81938 3.44238 0 0 -24 -3.18055e-15 -2.38542e-15 2.3881 -2.84217e-14 0 -20 1.59028e-15 -1.17283e-14 3.16105 0.469368 -1.20179 -3.18055e-15 -7.95139e-15 3.18055e-15 4.14105 -0.022105 -1.09053 -19.7815 -3.00948 8.30515 2.75653 0 -5.68434e-14 -24 6.36111e-15 -1.07344e-14 1.74189 0 0 -20 4.77083e-15 -1.0138e-14 
328.049 87.6539 203.232 28.3231 7.76476 -101.358 -9.25171 -1.57068 -0.0545131 18.684 -50.4384 10.1308 0.229298 -41.8232 0.092191 -4.52514 24.2898 -3.5466 0.678601 -40.8273 0.278481 5.02973 0.830955 35.9257 9.20662 -1.54888 0.0844172 37.4504 -19.3021 12.5272 -0.00543727 -41.8872 0.00100434 -5.6881 31.6092 -0.0498393 3.17085 -44.0485 0.304446 -1.33308 -16.5953 10.4729 0.0379697 14.3031 -0.0949397 -6.6482 1.9811 -5.82178 0.0379534 9.72237 -0.0110427 -1.68356 0.353386 -1.5214 -0.0334087 10.1255 0.107226 -2.78364 0.540243 -2.54691 0.00781701 9.71753 -0.00336084 -0.639792 -0.366835 2.12583 -0.158197 10.3939 -0.0203895 -1.54418 -1.74366 10.152 -0.0840025 9.44564 -0.12003 -11.1047 -2.29581 35.144 -3.23497 6.90555 -0.0151892 8.84228 0.0634495 -1.22597 -12.8142 -0.033276 -0.155796 70.3552 -25.0185 18.4568 -26.7283 -0.515571 0.206143 21.4652 -18.1412 101.163 -26.0231 -0.572318 -0.454787 13.4454 -32.3586 17.0092 -2.48905 0.190105 3.12053 28.184 10.7294 19.1592 -3.68274 0 0 -5.60818e-16 -3.18055e-15 -10 -2.55832 -2.84217e-14 0 1.36822e-15 3.18055e-15 -10 -3.22368 0.508421 1.97842 -6.36111e-15 0 -6.36111e-15 -5.21684 -0.091368 0.999158 19.9818 0.871897 2.3964 -3.61937 -1.42109e-14 0 24 3.18055e-15 -2.38542e-15 -2.0521 2.84217e-14 5.68434e-14 20 3.18055e-15 -0 -3.38211 0.517263 0.756737 -6.36111e-15 0 -6.36111e-15 -5.17411 -0.084 0.313895 20 0 -2.28602e-15 -3.94947 0 0 24 0 -1.15295e-14 -2.47579 2.84217e-14 0 20 0 -1.03368e-14 -3.36516 0.537895 -0.128947 -6.36111e-15 0 -6.36111e-15 -4.63474 -0.022105 -0.478947 19.9748 -1.02565 -2.81938 -3.44238 0 0 24 1.59028e-15 -2.38542e-15 -2.3881 -2.84217e-14 -5.68434e-14 20 -1.59028e-15 3.97569e-15 -3.16105 0.469368 -1.20179 -6.36111e-15 0 -6.36111e-15 -4.14105 -0.022105 -1.09053 19.7815 -3.00948 -8.30515 -2.75653 0 0 24 1.59028e-15 -1.19271e-15 -1.74189 0 -2.84217e-14 20 0 -7.15625e-15 3.15526 6.92897 -0.00595112 9.56822 -13.1122 -44.7634 12.7189 0.0214057 -0.0286146 -20.9112 39.2298 -103.501 26.5204 -0.0208648 0.0460351 25.9601 -5.10542 -15.4354 25.9324 -0.0427998 -0.0408048 -38.7687 -8.15838 -10.2731 2.48905 0.190105 3.12053 -28.184 10.7294 -19.1592 3.68274 -2.84217e-14 2.84217e-14 2.10798e-15 6.36111e-15 10 2.55832 0 0 -0 0 10 3.22368 0.508421 1.97842 -3.18055e-15 7.95139e-16 -0 5.21684 -0.091368 0.999158 -19.9818 0.871897 -2.3964 3.61937 0 5.68434e-14 -24 0 -7.95139e-16 2.0521 0 5.68434e-14 -20 3.18055e-15 -3.67752e-15 3.38211 0.517263 0.756737 -3.18055e-15 7.95139e-16 -0 5.17411 -0.084 0.313895 -20 -1.59028e-15 9.54166e-15 3.94947 0 -5.68434e-14 -24 0 4.77083e-15 2.47579 2.84217e-14 5.68434e-14 -20 -1.59028e-15 5.86415e-15 3.36516 0.537895 -0.128947 -3.18055e-15 7.95139e-16 -0 4.63474 -0.022105 -0.478947 -19.9748 -1.02565 2.81938 3.44238 0 0 -24 1.59028e-15 -1.11319e-14 2.3881 2.84217e-14 0 -20 0 -3.8266e-15 3.16105 0.469368 -1.20179 -3.18055e-15 7.95139e-16 -0 4.14105 -0.022105 -1.09053 -19.7815 -3.00948 8.30515 2.75653 0 5.68434e-14 -24 -1.59028e-15 1.98785e-15 1.74189 0 0 -20 -1.59028e-15 6.03808e-15 
